PathFileType	4	(X/Y/Z)	C:/Users/opensim2020/Desktop/walking_exp_matlab/subject02_walking15_straight_01.trc																																																																																																																												
DataRate	CameraRate	NumFrames	NumMarkers	Units	OrigDataRate	OrigDataStartFrame	OrigNumFrames																																																																																																																								
100	100	4	42	mm	100	511	165																																																																																																																								
Frame#	Time	LFHD			RFHD			LBHD			RBHD			C7			T10			CLAV			STRN			RBAK			LSHO			LUPA			LELB			LFRM			LWRA			LWRB			LFIN			RSHO			RUPA			RELB			RFRM			RWRA			RWRB			RFIN			LASI			RASI			LPSI			RPSI			LTHI			LKNE			LTIB			LANK			LHEE			LTOE			RTHI			RKNE			RTIB			RANK			RHEE			RTOE			*39			*40			*41		
		X1	Y1	Z1	X2	Y2	Z2	X3	Y3	Z3	X4	Y4	Z4	X5	Y5	Z5	X6	Y6	Z6	X7	Y7	Z7	X8	Y8	Z8	X9	Y9	Z9	X10	Y10	Z10	X11	Y11	Z11	X12	Y12	Z12	X13	Y13	Z13	X14	Y14	Z14	X15	Y15	Z15	X16	Y16	Z16	X17	Y17	Z17	X18	Y18	Z18	X19	Y19	Z19	X20	Y20	Z20	X21	Y21	Z21	X22	Y22	Z22	X23	Y23	Z23	X24	Y24	Z24	X25	Y25	Z25	X26	Y26	Z26	X27	Y27	Z27	X28	Y28	Z28	X29	Y29	Z29	X30	Y30	Z30	X31	Y31	Z31	X32	Y32	Z32	X33	Y33	Z33	X34	Y34	Z34	X35	Y35	Z35	X36	Y36	Z36	X37	Y37	Z37	X38	Y38	Z38	X39	Y39	Z39	X40	Y40	Z40	X41	Y41	Z41	X42	Y42	Z42
																																																																																																																															
124	1.23	210.69669	1734.87219	1494.45642	222.14157	1723.70813	1638.02368	78.28944	1663.94507	1501.03101	76.56328	1651.57349	1643.79846	29.91569	1522.80615	1583.22083	-15.70728	1246.54712	1604.07617	167.18831	1458.10645	1558.7594	224.4489	1287.89331	1569.95264	-18.47259	1351.11523	1662.92505	75.24792	1489.85901	1398.85791	33.96381	1292.19629	1323.76782	12.66358	1154.42615	1310.21411	0.25958	1024.56543	1290.89722	41.30171	889.4491	1307.02722	-7.69645	901.7832	1281.1377	-1.64802	835.93707	1272.94116	122.09091	1502.12793	1758.88782	121.54211	1317.99731	1859.74634	154.79968	1174.23645	1884.46155	209.48688	1066.81323	1901.45154	282.41019	953.97998	1878.7644	241.25792	941.23132	1916.14026	293.04617	890.58826	1917.3197	203.52205	989.42377	1457.50171	214.40128	973.40332	1709.578	-0.94733	1033.02686	1545.07312	2.12078	1036.34497	1660.41626	207.23083	688.06891	1385.2782	249.52304	493.63809	1419.15283	210.4455	305.39197	1445.26648	244.17502	84.54467	1478.72925	234.30014	57.65169	1541.74792	381.87283	58.72631	1417.00525	109.87492	669.96942	1772.25403	71.83279	461.60834	1731.19958	7.48529	285.29214	1745.62659	-38.09966	95.21531	1710.71802	-84.29372	41.77067	1661.91064	110.76769	37.34945	1709.85046	118.61551	1807.70142	1588.80896	2845.98096	1034.39014	-3357.35889	NaN	NaN	NaN
125	1.24	223.08659	1732.8335	1492.08777	235.10666	1722.02917	1635.66077	90.66515	1662.02271	1499.37512	89.49036	1649.88293	1642.0896	42.75132	1520.70703	1581.38892	-3.04781	1244.76965	1601.98987	180.2449	1456.09216	1557.14404	237.36586	1285.80225	1568.98621	-5.30485	1349.58923	1661.7229	88.13119	1487.31592	1396.953	43.39526	1289.89453	1323.24866	19.54794	1153.13928	1311.00842	1.56746	1024.67114	1291.52246	36.12856	887.54358	1305.96277	-12.46256	902.43549	1281.02112	-9.83512	836.59607	1272.10364	135.11009	1500.84631	1757.14209	136.53351	1317.31799	1858.69299	172.00069	1173.96021	1883.95544	229.91701	1067.94946	1900.16406	306.06372	957.75897	1876.21814	265.29749	943.14374	1913.573	318.68845	894.20789	1913.96631	216.98297	986.94452	1456.39661	225.67117	971.14703	1709.19165	11.80793	1030.901	1542.06433	13.36316	1034.31018	1657.26294	220.84608	685.8584	1384.6488	263.42957	491.53635	1419.19067	235.68614	300.55402	1442.91333	282.95963	81.09254	1472.2168	274.35135	53.25367	1534.70923	422.07248	63.78028	1410.01123	116.93086	669.14496	1771.32056	76.31727	461.49042	1730.4729	9.54093	285.72021	1744.69666	-37.66426	95.82714	1710.03198	-84.01216	42.43618	1661.07117	110.66761	37.0594	1709.77673	131.37724	1805.90576	1586.5968	2845.90381	1034.32605	-3357.35669	NaN	NaN	NaN
126	1.25	235.58481	1730.7533	1489.68762	248.03117	1720.17773	1633.22998	103.13835	1659.70886	1497.25098	102.53291	1648.02368	1640.29614	55.6878	1518.8103	1579.76611	9.62932	1242.78748	1599.6853	193.40013	1453.92371	1555.51465	250.36432	1283.58228	1567.92883	7.60387	1347.41614	1659.69702	101.46212	1484.87561	1395.2887	53.55039	1287.32373	1323.42896	26.56713	1151.94543	1311.67371	3.2602	1024.91736	1291.76831	31.32378	886.16248	1305.0282	-16.33775	903.58594	1280.14014	-17.46969	837.83667	1271.19836	148.06201	1499.48071	1755.24316	151.03934	1316.36108	1857.18445	189.0853	1173.73828	1883.64746	249.85675	1068.96423	1898.49707	329.18839	961.45276	1873.34033	289.10181	945.25854	1910.88184	343.93008	898.08936	1910.50085	230.45566	984.2569	1455.06934	237.13943	968.86163	1708.52087	24.56259	1028.49951	1538.96741	24.49327	1032.0824	1654.05066	233.95547	682.92883	1383.8916	277.78345	489.17682	1419.21741	259.76321	296.42081	1439.87988	320.35489	78.88788	1465.59277	313.28799	50.15326	1527.85791	460.35504	69.66185	1402.92554	124.0962	668.22241	1770.29871	80.53551	461.02853	1729.39514	11.53569	286.26672	1743.67615	-37.08253	96.62405	1709.48413	-84.44178	43.76291	1659.69495	110.76208	37.10864	1710.21094	144.16235	1803.88525	1584.2915	2845.84009	1034.42322	-3357.31763	NaN	NaN	NaN
127	1.26	248.01993	1728.52356	1487.17078	260.99036	1718.2085	1630.73132	115.72529	1657.3916	1495.23352	115.49276	1646.00464	1638.31616	68.70735	1516.47302	1577.80481	22.37354	1240.75317	1597.08691	206.58038	1451.65479	1553.65955	263.41	1281.2583	1566.68372	20.5391	1345.28809	1657.70117	114.54504	1482.31628	1393.3186	63.14185	1285.63123	1322.64355	33.65436	1150.91333	1312.22583	5.53636	1025.29932	1291.98621	27.75544	885.91113	1303.90735	-19.64106	905.12183	1279.82581	-24.13682	839.77441	1270.45422	160.94247	1497.77966	1753.05493	165.66379	1315.50977	1855.97668	205.62547	1173.19165	1882.8728	269.28848	1069.80066	1896.48303	352.20868	965.33826	1870.78992	312.52863	947.48853	1908.10791	368.77487	902.11243	1907.02344	244.03667	981.4093	1453.44592	248.79587	966.65564	1707.59485	37.34411	1025.84351	1535.84668	36.01879	1029.37048	1650.58472	246.67447	679.4408	1383.07727	292.45972	486.69122	1418.86475	284.73328	292.94922	1437.1947	356.44534	78.3599	1459.29932	350.33963	48.09878	1520.89917	496.7525	76.01389	1396.30225	131.30037	667.383	1769.3949	84.87181	460.62448	1728.41931	13.42005	286.95621	1742.67163	-36.68902	97.44726	1708.60632	-83.83817	44.65606	1658.67151	110.84161	37.01135	1710.39575	156.90176	1801.81335	1581.98462	2846.04443	1034.27417	-3357.34082	NaN	NaN	NaN
